<svg xmlns="http://www.w3.org/2000/svg" fill="none" viewBox="-0.5 -0.5 16 16" stroke-linecap="round" stroke-linejoin="round" stroke="#000000" id="Calendar--Streamline-Mynaui" height="16" width="16">
  <desc>
    Calendar Streamline Icon: https://streamlinehq.com
  </desc>
  <path d="M10.3125 3.125V1.875m-5.625 1.25V1.875M2.03125 5h10.9375M1.875 6.2775c0 -1.3218750000000001 0 -1.983125 0.2725 -2.488125a2.435 2.435 0 0 1 1.0925 -1.031875C3.775 2.5 4.475 2.5 5.875 2.5h3.25c1.4000000000000001 0 2.1 0 2.6350000000000002 0.2575 0.470625 0.22625 0.8525 0.5874999999999999 1.0925 1.03125 0.2725 0.5062500000000001 0.2725 1.1675 0.2725 2.489375v3.07c0 1.3218750000000001 0 1.983125 -0.2725 2.488125a2.435 2.435 0 0 1 -1.0925 1.031875C11.225000000000001 13.125 10.525 13.125 9.125 13.125H5.875c-1.4000000000000001 0 -2.1 0 -2.6350000000000002 -0.2575a2.435 2.435 0 0 1 -1.0925 -1.03125C1.875 11.33 1.875 10.66875 1.875 9.346875z" stroke-width="1"></path>
</svg>