<svg xmlns="http://www.w3.org/2000/svg" fill="none" viewBox="-0.5 -0.5 16 16" stroke-linecap="round" stroke-linejoin="round" stroke="#ffffff" id="Pin--Streamline-Mynaui" height="16" width="16">
  <desc>
    Pin Streamline Icon: https://streamlinehq.com
  </desc>
  <path d="m1.875 13.125 2.89375 -2.894375m0.003125 -0.003125 -1.7374999999999998 -1.7374999999999998c-0.59625 -0.595625 0.00375 -1.8725 0.8187500000000001 -1.9237499999999998 0.73625 -0.046875 2.440625 0.21999999999999997 3.0075000000000003 -0.34687500000000004l1.5562500000000001 -1.5562500000000001c0.385625 -0.38625 0.140625 -1.25 0.115625 -1.72625 -0.036250000000000004 -0.635 0.97375 -1.419375 1.509375 -0.8837499999999999l2.904375 2.905c0.5375 0.53625 -0.25 1.5431249999999999 -0.883125 1.509375 -0.47625 -0.025 -1.340625 -0.27 -1.726875 0.115625l-1.5562500000000001 1.5562500000000001c-0.56625 0.566875 -0.3 2.270625 -0.34625000000000006 3.006875 -0.051250000000000004 0.8156249999999999 -1.328125 1.4156250000000001 -1.925 0.8187500000000001z" stroke-width="1"></path>
</svg>