<svg xmlns="http://www.w3.org/2000/svg" fill="none" viewBox="-0.5 -0.5 16 16" stroke-linecap="round" stroke-linejoin="round" stroke="#ffffff" id="Search-Slash--Streamline-Mynaui" height="16" width="16">
  <desc>
    Search Slash Streamline Icon: https://streamlinehq.com
  </desc>
  <path d="M10.558125 10.575000000000001a4.73125 4.73125 0 0 0 1.3693749999999998 -3.336875 4.72875 4.72875 0 0 0 -1.111875 -3.05375m-0.2575 6.390625a4.699999999999999 4.699999999999999 0 0 1 -3.3531250000000004 1.40125 4.69375 4.69375 0 0 1 -3.055625 -1.1256249999999999m6.4087499999999995 -0.275625 1.925 1.925M10.815625 4.184375 13.125 1.875m-2.3093749999999997 2.3093749999999997L4.1499999999999995 10.85M1.875 13.125l2.274375 -2.274375m-1.19 -1.5362500000000001a4.7325 4.7325 0 0 1 -0.47625 -2.07625C2.483125 4.62125 4.5975 2.5 7.205 2.5a4.69375 4.69375 0 0 1 2.058125 0.47250000000000003" stroke-width="1"></path>
</svg>