<svg xmlns="http://www.w3.org/2000/svg" fill="none" viewBox="-0.5 -0.5 16 16" stroke-linecap="round" stroke-linejoin="round" stroke="#ffffff" id="Lock--Streamline-Mynaui" height="16" width="16">
  <desc>
    Lock Streamline Icon: https://streamlinehq.com
  </desc>
  <path d="M5 6.25V5c0 -1.725625 0.774375 -3.125 2.5 -3.125s2.5 1.399375 2.5 3.125v1.25M2.1875 11.125v-2.875c0 -0.7000000000000001 0 -1.05 0.13625 -1.316875a1.25 1.25 0 0 1 0.54625 -0.546875c0.2675 -0.135625 0.6174999999999999 -0.135625 1.3175000000000001 -0.135625h6.625c0.7000000000000001 0 1.05 0 1.3175000000000001 0.135625a1.25 1.25 0 0 1 0.54625 0.54625c0.13625 0.2675 0.13625 0.6174999999999999 0.13625 1.3175000000000001v2.875c0 0.7000000000000001 0 1.05 -0.13625 1.3175000000000001a1.25 1.25 0 0 1 -0.54625 0.54625C11.8625 13.125 11.512500000000001 13.125 10.8125 13.125H4.1875c-0.7000000000000001 0 -1.05 0 -1.3175000000000001 -0.13625a1.25 1.25 0 0 1 -0.54625 -0.54625C2.1875 12.175625 2.1875 11.825624999999999 2.1875 11.125" stroke-width="1"></path>
</svg>